<mxfile host="app.diagrams.net" agent="Mozilla/5.0 (Windows NT 10.0; Win64; x64) AppleWebKit/537.36 (KHTML, like Gecko) Chrome/140.0.0.0 Safari/537.36" version="28.2.5">
  <diagram name="第 1 页" id="3Jt0ARMRfDGDYG98E337">
    <mxGraphModel dx="946" dy="563" grid="1" gridSize="10" guides="1" tooltips="1" connect="1" arrows="1" fold="1" page="1" pageScale="1" pageWidth="827" pageHeight="1169" math="1" shadow="0">
      <root>
        <mxCell id="0" />
        <mxCell id="1" parent="0" />
        <mxCell id="OmPL4huzPycEzAdXIaUj-1" value="" style="edgeStyle=orthogonalEdgeStyle;rounded=0;orthogonalLoop=1;jettySize=auto;html=1;" parent="1" source="OmPL4huzPycEzAdXIaUj-2" target="OmPL4huzPycEzAdXIaUj-4" edge="1">
          <mxGeometry relative="1" as="geometry" />
        </mxCell>
        <mxCell id="OmPL4huzPycEzAdXIaUj-2" value="\[SSSD\] iter." style="rounded=1;whiteSpace=wrap;html=1;" parent="1" vertex="1">
          <mxGeometry x="40" y="40" width="120" height="100" as="geometry" />
        </mxCell>
        <mxCell id="OmPL4huzPycEzAdXIaUj-3" value="" style="edgeStyle=orthogonalEdgeStyle;rounded=0;orthogonalLoop=1;jettySize=auto;html=1;" parent="1" source="OmPL4huzPycEzAdXIaUj-4" target="OmPL4huzPycEzAdXIaUj-6" edge="1">
          <mxGeometry relative="1" as="geometry" />
        </mxCell>
        <mxCell id="OmPL4huzPycEzAdXIaUj-4" value="\[autoFRK\] for this iter. in \[SSSD\]" style="rounded=1;whiteSpace=wrap;html=1;" parent="1" vertex="1">
          <mxGeometry x="240" y="40" width="120" height="100" as="geometry" />
        </mxCell>
        <mxCell id="OmPL4huzPycEzAdXIaUj-5" value="" style="edgeStyle=orthogonalEdgeStyle;rounded=0;orthogonalLoop=1;jettySize=auto;html=1;" parent="1" source="OmPL4huzPycEzAdXIaUj-6" target="OmPL4huzPycEzAdXIaUj-7" edge="1">
          <mxGeometry relative="1" as="geometry" />
        </mxCell>
        <mxCell id="OmPL4huzPycEzAdXIaUj-6" value="calc. loss11111" style="rounded=1;whiteSpace=wrap;html=1;" parent="1" vertex="1">
          <mxGeometry x="440" y="40" width="120" height="100" as="geometry" />
        </mxCell>
        <mxCell id="OmPL4huzPycEzAdXIaUj-7" value="return this loss for next iter." style="rounded=1;whiteSpace=wrap;html=1;" parent="1" vertex="1">
          <mxGeometry x="640" y="40" width="120" height="100" as="geometry" />
        </mxCell>
      </root>
    </mxGraphModel>
  </diagram>
</mxfile>
